M48
INCH
T10C0.035000
T11C0.037000
%
T10
X026777Y007222
X026777Y003222
X020777Y006222
X020777Y002222
X021777Y006222
X021777Y002222
X022777Y006222
X022777Y002222
X023777Y006222
X023777Y002222
X011777Y010222
X011777Y006222
X012777Y010222
X012777Y006222
X013777Y010222
X013777Y006222
X014777Y010222
X014777Y006222
X016777Y010222
X016777Y006222
X015777Y010222
X015777Y006222
X029777Y003222
X028777Y003222
X029777Y004222
X028777Y004222
X029777Y005222
X028777Y005222
X029777Y006222
X028777Y006222
X029777Y007222
X028777Y007222
X029777Y008222
X028777Y008222
X029777Y009222
X028777Y009222
X029777Y010222
X028777Y010222
X029777Y011222
X028777Y011222
X029777Y012222
X028777Y012222
X029777Y013222
X028777Y013222
X029777Y014222
X028777Y014222
X029777Y015222
X028777Y015222
X029777Y016222
X028777Y016222
X029777Y017222
X028777Y017222
X029777Y018222
X028777Y018222
X029777Y019222
X028777Y019222
X029777Y020222
X028777Y020222
X027777Y001222
X026777Y001222
X025777Y001222
X024777Y001222
X023777Y001222
X022777Y001222
X021777Y001222
X020777Y001222
X018777Y001222
X017777Y001222
X025777Y020222
X024777Y020222
X023777Y020222
X022777Y020222
X021777Y020222
X020777Y020222
X019777Y020222
X018777Y020222
X016777Y001222
X015777Y001222
X014777Y001222
X013777Y001222
X012777Y001222
X011777Y001222
X009777Y001222
X008777Y001222
X007777Y001222
X006777Y001222
X005777Y001222
X004777Y001222
X016777Y020222
X015777Y020222
X014777Y020222
X013777Y020222
X012777Y020222
X011777Y020222
X010777Y020222
X009777Y020222
X008077Y020222
X007077Y020222
X006077Y020222
X005077Y020222
X004077Y020222
X003077Y020222
X002077Y020222
X001077Y020222
T11
X016777Y004222
X015777Y004222
X014777Y004222
X013777Y004222
X012777Y004222
X011777Y004222
X026777Y010222
X026777Y011222
X026777Y012222
X026777Y013222
X026777Y014222
X026777Y015222
X006777Y009222
X006777Y008222
X006777Y007222
X006777Y006222
X006777Y005222
X006777Y004222
X015777Y018222
X014777Y018222
X013777Y018222
X012777Y018222
X023777Y008222
X022777Y008222
X021777Y008222
X020777Y008222
X021777Y012222
X020777Y012222
X019777Y012222
X018777Y012222
X008777Y005222
X008777Y004222
X024777Y015222
X024777Y014222
X024777Y013222
X024777Y012222
X024777Y011222
X024777Y010222
X008777Y001222
X007777Y001222
X006777Y001222
X005777Y001222
X025777Y020222
X024777Y020222
X028777Y010222
X028777Y011222
X028777Y012222
X028777Y013222
X028777Y014222
X028777Y015222
X016777Y001222
X015777Y001222
X014777Y001222
X013777Y001222
X012777Y001222
X011777Y001222
X029777Y020222
X028777Y020222
X026777Y008222
X025777Y008222
X029777Y003222
X028777Y003222
X001777Y019222
X000777Y019222
T00
M30
